<svg id="Layer_1" data-name="Layer 1" xmlns="http://www.w3.org/2000/svg" viewBox="0 0 717.35 332.24"><defs><style>.cls-1,.cls-5{fill:#575756;}.cls-2{fill:#fff;}.cls-3{fill:#e94e1c;}.cls-4{fill:#e94e1b;}.cls-5{font-size:66.47px;font-family:Arial-Black, Arial;font-weight:800;}</style></defs><rect class="cls-1" y="9.67" width="348.18" height="48.84"/><rect class="cls-1" x="27.99" y="69.14" width="292.2" height="263.1"/><path class="cls-2" d="M121.09,248.57c0-87.78,53.48-122.3,105-122.3s105,34.52,105,122.3-53.47,122.29-105,122.29S121.09,336.34,121.09,248.57ZM225.7,325.48c26.85,0,39.63-30.25,39.63-76.91,0-46-12.78-77.13-39.63-77.13-27.06,0-39.84,31.11-39.84,77.13,0,46.66,12.78,76.91,39.63,76.91Z" transform="translate(-52.04 -47.88)"/><path class="cls-3" d="M428.18,378.23V161.49H383.13v-42.6H529.41v42.6H484.54V378.23Z" transform="translate(-52.04 -47.88)"/><path class="cls-4" d="M716,378.23V169.41h-.56L670.17,378.23H635.3L592.88,169.41h-.56V378.23h-49.2V118.89h83.13l27.9,131.57h.56l30.54-131.57h81V378.23Z" transform="translate(-52.04 -47.88)"/><text class="cls-5" transform="translate(361.96 57.03) scale(0.68 1)">ON THE MOVE</text></svg>